<svg version="1.2" xmlns="http://www.w3.org/2000/svg" viewBox="0 0 287 111" width="287" height="111">
	<title>AK</title>
	<style>
		.s0 { fill: #f9f9f9;stroke: #000000;stroke-linejoin: round;stroke-width: 1 } 
	</style>
	<path id="AK" fill-rule="evenodd" class="s0" d="m83.2 101.2l-0.4-0.1l0.5-0.1c0 0-0.1 0.2-0.1 0.2zm2.1-1.1l-0.2 0.1v-0.3c0 0 0.2 0.2 0.2 0.2zm0.7 0.2l0.1-0.1v0.2c0 0-0.1-0.1-0.1-0.1zm-0.3-0.2h0.2v0.1zm-75.4-61.1l-0.2-1.9l0.1-0.7zm-0.4-4.7l-0.1 0.3l-0.1-0.8zm76 64.6c0 0-0.3-0.4-0.3-0.4l0.4-0.2zm11.2 5.1l-0.2-0.4l0.1 0.1c0 0 0.1 0.3 0.1 0.3zm-8.4-2.4v-2.3l1.1 1zm1.7 0l1.7 0.1l0.1 0.7c0 0-1.8-0.8-1.8-0.8zm7.6 2.1c0 0 0.1 0.2 0.1 0.2h-0.2zm0.6 0.2l-0.4-0.1h0.2zm-84.1-65.5l-0.3 0.1l-0.3-0.1zm82.9 64.4c0 0-0.5 0.2-0.5 0.2l-0.3-0.3zm-90.3-72.3l0.1-0.3l1.4 0.6zm92.5 72.5v-0.1l0.2 0.1zm1.4 1.9l0.9-0.4l3.8-0.3zm-100.3-89l-0.2-0.3h1.1zm116.5 92.4h0.1v0.4zm5.3 0.1l0.2 0.2l-0.2 0.2zm3.9 1.3h0.1l-0.2 0.1c0 0 0.1-0.1 0.1-0.1zm-3.5-2h0.2l0.1 0.4zm6.8 1.9h-0.1l0.1-0.1zm-127.1-97.1l-1.8-1.7l1.4-0.2zm122 95h0.1l-0.2 0.6c0 0 0.1-0.6 0.1-0.6zm16.3-0.8c0 0-0.1-0.3-0.1-0.3l0.2 0.1zm-0.5-0.3l-2.9 2.2l-2.4 0.2l3.4-3zm4.1 0.7l-0.5-0.4l0.7 0.2zm0.3-0.3l0.2-0.1l1 0.3c0 0-1.2-0.2-1.2-0.2zm-1.7-0.7l-1.8-0.5h1zm3.2 0.4l0.4-0.1l0.1 0.2c0 0-0.5-0.1-0.5-0.1zm-2.8-0.2v-1l0.4 0.2zm12.5 1.4h0.2l0.1 0.1zm0.3-0.2l0.2 0.1v0.1c0 0-0.2-0.2-0.2-0.2zm-0.4 0.1l-1-0.8l0.8 0.3zm-0.8-0.2v0.1l-0.2-0.4c0 0 0.2 0.3 0.2 0.3zm13.2-0.2h0.1l0.2 0.4c0 0-0.3-0.4-0.3-0.4zm25.4-101.3l2-2.3l0.8 1.6l4.6 0.7l1.4 2.7l5.8-0.4l5.4 2.2l4.3 0.8l5.5-1l3.7 2.2l1.5 2.7l9.2 57.6l6.4 0.3l6.5 4.2h2.8l4.7-4.6l6.3 4.5l11.4 11l7.5 0.8l1.9 4.9l-2.4 4l-3.6-7l-1.7 4l-1.9-5.1l-7.1-4l-0.7-2.4l-8.1-6l-1.7-3.3l-0.2 7.3l-2.1 1.3l-12.6-6l-1-1.5l-3.4 1.1l-14.5-1.9l0.5-1l-6.5-3.9l-2.2 1.4l-3.1-0.7l0.9 3.6l-0.4 1v-0.1l-0.1 0.2q0 0 0.1 0.1l-0.4 1.1l-10.3 6.2l-2.1 0.2l-0.2-3.5l1.6-6.5l6.2-1.8l-1.6-1l-5 0.9l-6.6 7.9l-2.6 4.2l2 2.3l-7.5 5.9l-0.7-0.4l-8.5 6l-4.1 4l-0.3-1.3l-10.4 3.4l-1.1-1.8l-8.1 2.4l5.1-3.4l3.6-0.9l2.3 0.9l1.5-1.6l11.9-7.7l1.4-5.1l1.9-2.5l-4 1.1l-1.9-1.9l-3.8-0.3l-1.7-1.8l-4.5-1l-1-1.4l0.8-6.2l-3.7 1.6l-5.9-5.1l1.4-4.1l-1.7-0.8v-5l4.4-3.4l1.3-2.8l2.7-1l0.3 1.6l5.2-2.3h4.5l1.4-6.1l-0.8-2.1l-5.4 2.7l-7.3-2.9l-2.3-2.7l0.5-2.3l-3.4-3.8l7.5-2.8l4.4-0.8l5.5 5l1.7-1l-1.3-3l2.6 2l2.1-0.4l-4-1.7l0.8-2.1l-5.4-5.2l-2.9-4l-0.6-3.5l6.5-1.4l6.4-7.2l1.1 0.7l5.6-3.2l2.4 0.6l4-3.3zm-38.4 98.3l0.1-0.1v0.1zm116.3-12.8l6 5.1l1.4 3.4l-6.3-4l-0.9-1.4l0.4 0.2l-0.2-0.4l-0.2 0.2l-1-1.5l0.2-0.4l-0.3 0.3l-0.8-1.3zm-101.9 15.8v-0.3l0.1-0.1c0 0-0.1 0.4-0.1 0.4zm-11.9-2.9h0.1l-0.1 0.7c0 0 0-0.7 0-0.7zm123.6-6.2l-0.8-0.3l0.9-0.5c0 0-0.1 0.8-0.1 0.8zm-133.7 7.6l2.1-2.8l2.4-0.5zm22 0.8l-0.6 0.1l0.6-0.5c0 0 0 0.4 0 0.4zm111.6-9.9l0.1-0.2l0.2 0.4c0 0-0.3-0.2-0.3-0.2zm-121 7.6l-0.6-0.7l0.6 0.1c0 0 0 0.6 0 0.6zm114.9-5.3l-0.2-0.7l0.2-0.2zm-113.2 5l-0.4-0.3l0.3-0.1c0 0 0.1 0.4 0.1 0.4zm7.1 1.6h-0.3l-0.2-0.2zm-8.3-2l-0.2-0.3l0.5 0.3zm5.4 2.9l0.5-1.5l0.9-0.3zm107.3-8.5l-0.4 0.5v-0.7zm-116.6 3.3h0.1l-0.8 0.2c0 0 0.7-0.2 0.7-0.2zm-1.8-0.4v-0.1l0.2 0.2c0 0-0.2-0.1-0.2-0.1zm118-3.7c0 0-0.3 0.2-0.3 0.2l0.1-0.3c0 0 0.2 0.1 0.2 0.1zm-106.5 5.8c0 0-0.4 0.2-0.4 0.2l0.2-0.3zm105.5-5.6c0 0-0.1-0.6-0.1-0.6l0.2 0.1zm-0.5 0l-0.5-0.1l0.3-0.4c0 0 0.2 0.5 0.2 0.5zm-101.2 4.1h0.1l0.2 0.1c0 0-0.3-0.1-0.3-0.1zm100.7-6.4c0 0 1-0.1 1-0.1l-0.3 0.4c0 0-0.7-0.3-0.7-0.3zm0.8-0.4h0.1h-0.1zm-2.3 0.2l0.2-0.2l0.2 0.4zm10.1-0.6l-1.3 0.7l1.3-3.5zm-8.8-1.2l0.1 0.1l-0.5 1.4l-0.2-0.9zm-90.2 7.3l0.1-0.2v0.4zm95.8-0.4h-0.2l-0.3-0.4zm-99.9-1.2l0.2-0.1l0.1 0.3c0 0-0.3-0.2-0.3-0.2zm97.1-7.6l-0.7 0.5l0.4-1.5zm2.5 0.3l-0.9-0.3l0.1-1zm-96.2 6.3c0 0-0.9 0.1-0.9 0.1l0.4-0.2zm10 0.8l-0.3 0.7l0.1-0.6c0 0 0.2-0.1 0.2-0.1zm1.1 0.8l-0.5-0.6l0.9-0.1c0 0-0.4 0.7-0.4 0.7zm-57.6-12.8l0.1 0.2l-0.9-0.5zm38 9.2h0.1v-0.1zm101.8-6.2l-0.9 0.6l-0.5-1.9zm-4.2 3.1l-1 0.9l-0.4-4.4zm0.9-3.9l0.3 2l-2.2-3.1zm-8.7 0.3l-0.7 1.3l0.6-1.9zm-62.4 3.6l-7.1 5.3l-1.6-1.6l2.3-3l0.1 0.2c0 0 0-0.1 0-0.1l-0.1-0.2l0.8-1l2.5-1.6zm65.6-3.6l0.6 4.3l-3.9-6.4zm-66.2 1.9l-0.5-0.2l0.3-0.3zm-1.5-0.3c0 0-0.3-0.3-0.3-0.3h0.4zm-4.3 2.7l-0.1-0.2zm63.9-8.7v-0.6l0.7 0.4zm-60.4 5.7l-0.7-0.4l-0.1-0.4c0 0 0.8 0.8 0.8 0.8zm62.8-6.2l-1.8-0.6l1.9-1zm-1.5-1.5l0.1-0.2l0.2 0.2c0 0-0.3 0-0.3 0zm5.7-1.4l1.4 0.2l1.1 5.3l-4-5.8l1.2 0.2l-0.1 0.2zm-0.3-0.4l0.8 0.3l-0.5 0.1l-0.4-0.1zm-3.4 1c0 0-0.7 0.1-0.7 0.1v-0.2zm-60.1 6.1l-3.1 2.4l-1-1.2l2.3-1.7zm-28.3-4.3v-0.1l0.1 0.1zm-1.1-0.8v-0.2l0.1 0.5zm29.7 1.7v-0.1l0.2-0.1c0 0-0.2 0.2-0.2 0.2zm-1.1-0.1l0.2-0.2h0.1c0 0-0.3 0.2-0.3 0.2zm2.3-1.1v-0.1l0.3 0.2c0 0-0.3-0.1-0.3-0.1zm0.8-0.1v-0.1l0.3 0.2c0 0-0.3-0.1-0.3-0.1zm-1.3-0.1v-0.1h0.4zm19.7-2.1c0 0-0.1 0-0.1 0l0.2-0.2zm6.7-4.3l0.3-0.3l-1.1 1.5zm-12.6 0.9c0 0 0.4-0.7 0.4-0.7l-0.1 0.4zm0.3-0.9l-0.6 0.2l0.3-0.3c0 0 0.3 0.1 0.3 0.1zm-16.4-0.5h0.1l0.1 0.4c0 0-0.2-0.4-0.2-0.4zm15.2 1l0.2-0.3l0.4-0.4zm11.5-2v-0.1l0.2 0.1zm-0.9-0.1v0.1l-0.1-0.1zm-6.2 0l-3 3.5l2.3-3.8zm-1.9 0.6l0.5-0.4l-0.4 0.4c0 0-0.1 0-0.1 0zm-2.1-0.5l0.1-0.2l0.3 0.3c0 0-0.2-0.1-0.4-0.1zm7.6-0.7l-0.1-0.1l0.2 0.1c0 0-0.1 0-0.1 0zm2.5-0.2l0.2-0.3v0.7zm-72.6-3.9l-3.2-3.4l4.7 0.2zm67.8 3.7c0 0 0.6-0.1 0.6-0.1l-0.5 0.7zm-3.6 0.7l-0.5 1.4l0.3-2.2zm-0.9-1.9l-0.2 0.1l-0.1-0.3c0 0 0.3 0.2 0.3 0.2zm-0.8 0.2l-0.2-0.6l-0.3 0.2zm4.3-1.4l0.3-0.2v0.4zm-3.8-0.1l-0.3 0.7v-1zm-58.2-13.9l0.1-0.1l-0.2 0.6c0 0 0.1-0.5 0.1-0.5zm0-0.5l0.1-0.1l0.1 0.1c0 0-0.2 0-0.2 0zm6.8-5.1l-0.4-0.2v0.1c0 0 0.4 0.1 0.4 0.1zm-0.8-0.3l0.2-0.2v0.2zm-15.3-4.6l-0.2-0.5l-0.1-0.3zm3-1l-2 0.9l-3-3.1l-0.2-0.2l-2.4-0.4l0.8-2.9zm-4.4-1.4l-0.6-0.8h0.1l0.7 1zm-1.4-1.4h-0.2l0.3 0.1c0 0-0.1-0.1-0.1-0.1zm25.3 6.9l-0.6-0.3l1.1-0.1c0 0-0.5 0.4-0.5 0.4zm-20.9-4.8l-0.1-0.1h-0.1c0 0 0.2 0.1 0.2 0.1zm6.6-14.1l-0.1-0.1l0.2 0.1c0 0-0.1 0-0.1 0zm3.1 0.8h0.1l-0.3 0.1c0 0 0.2-0.1 0.2-0.1zm2.9-0.8l-0.8 0.3h-0.3zm2.2-0.6l0.3-0.2l-0.2 0.2c0 0-0.1 0-0.1 0zm0.7-0.3l0.5-0.1l-0.6 0.3c0 0 0.1-0.2 0.1-0.2zm0.8-0.2v-0.1l0.5-0.1c0 0-0.5 0.2-0.5 0.2zm61.8-18.4l0.7 0.3l0.3 0.3zm-49.4-2.3l0.5-0.4l-0.8 1.2zm0.9-1l0.2-0.2l-0.4 0.6zm0.7-0.8l0.4-0.2l-0.7 0.6zm31.1 1.1h-0.3l-0.5-0.5zm63.4 92.7l-0.1-0.2l0.2 0.2c0 0-0.1 0-0.1 0zm-186.1 0.3v0.1zm-2.6-2.2v-0.1zm15.3 5h-0.1h-0.1c0 0 0.2 0 0.2 0zm57.5 1.9v0.1zm2.4-1.7l-0.1-0.2zm5.1-5.7h-0.1zm6.5-3.2l0.1-0.1zm2.9-1.1l0.1-0.1zm9.5-1.6l-0.1-0.1zm41-17.9h0.1h0.1c0 0-0.2 0-0.2 0zm-93.7-17.4l0.1-0.4zm75.6 12.2v-0.2zm-46.1-15.4v-0.1zm0-0.4l-0.1-0.2zm1.7-2.5h-0.1zm-18.2-9.7l0.2 0.1zm15.9-0.6v-0.2v0.1c0 0 0 0.1 0 0.1z" />
</svg>