<svg version="1.2" xmlns="http://www.w3.org/2000/svg" viewBox="0 0 67 103" width="67" height="103">
	<title>AL</title>
	<style>
		.s0 { fill: #f9f9f9;stroke: #000000;stroke-linejoin: round;stroke-width: 1 } 
	</style>
	<path id="AL" class="s0" d="m1.2 7.7l16.3-2.3l7.8-0.9l15.5-2.6l2.9-0.5l0.1 0.2l13 39.6l7.2 12.8l-1.7 2l-1.1 7.6l2.1 3.8l0.2 7.1l2.7 5v0.1l-2.9 0.5l-41.9 6.8l4.4 10l-0.2-0.1l0.7 0.5l-6.4 3.7l-3.3-3l-1.9-4.8l-1.2 8.6l-4.3-0.9l-0.4 0.1l-5-29.9l-0.2-21.8l-0.5-39.8l-1.4-0.9l-0.4-0.8c0 0-0.1-0.1-0.1-0.1z" />
</svg>