<svg version="1.2" xmlns="http://www.w3.org/2000/svg" viewBox="0 0 83 78" width="83" height="78">
	<title>AR</title>
	<style>
		.s0 { fill: #f9f9f9;stroke: #000000;stroke-linejoin: round;stroke-width: 1 } 
	</style>
	<path id="AR" class="s0" d="m81.6 10.1v0.1l-3 5.6l0.6 4l-2.7 4.2l1 3.9l-3.5 3.2l0.2 0.2v0.1l-4.1 6.8l0.4 5.2l-5.5 6.2l1.4 1.7l-3.7 15.5l1.8 3.3l-1 0.7l0.1 2.2h-0.2l-36.6 3.3l-9.2 0.7l-3 0.3l-0.2-2.4l-0.6-8.5l-5.8 0.1l-1.5-1.5l-0.3-0.1l-0.1-4.4l-1-26.4l-0.1-4.3l-3.8-19.6l-0.6-2.8l4.6-0.3l31.2-2.5l37-3.6l1.8 3.8l-4.2 6.8l10.5-1.5c0 0 0.1 0 0.1 0z" />
</svg>