<svg version="1.2" xmlns="http://www.w3.org/2000/svg" viewBox="0 0 109 128" width="109" height="128">
	<title>AZ</title>
	<style>
		.s0 { fill: #f9f9f9;stroke: #000000;stroke-linejoin: round;stroke-width: 1 } 
	</style>
	<path id="AZ" class="s0" d="m107.7 12.2l-0.4 3.5l-7.3 75.1l-0.6 7.1l-2.8 28.6h-0.3l-34.6-4.2l-40.8-21.7l-13.2-7.4l-7-4.3l2.1-3.8l3.5-0.2l1.5-4.3l-3-2.2l0.1-7.1l1.8-0.4l3.5-8.5l2.1-4l5.4-3.2l-3-4.1l-3.4-9.1l0.2-2.4v-0.1v-0.3l1.6-3.3l0.1-15.5l4.2-3.5l3.4 3l2.3 0.1l4.2-18.9v-0.2l2.6 0.4l25 4l17.6 2.5l32.7 4.1c0 0 2.5 0.3 2.5 0.3z" />
</svg>