<svg version="1.2" xmlns="http://www.w3.org/2000/svg" viewBox="0 0 137 222" width="137" height="222">
	<title>CA</title>
	<style>
		.s0 { fill: #f9f9f9;stroke: #000000;stroke-linejoin: round;stroke-width: 1 } 
	</style>
	<path id="CA" fill-rule="evenodd" class="s0" d="m74 17.8c0 0-0.9 3.7-0.9 3.7l-13.2 56l11.5 16.5l11.8 16.4l21 30.1l15 21.2l7.8 10.4l2.5 3.4v0.1l-0.2 2.4l3.4 9.1l3 4.1l-5.4 3.2l-2.1 4l-3.5 8.5l-1.8 0.4l-0.1 7.1l3 2.2l-1.5 4.3l-3.5 0.2l-39.7-3.9l-3-4l0.4-8.3l-5.5-9l-5.8-6.9l-3.9-1.9l-1.9-5.3l-4.7-0.9l-4.2-2.4l-1.6-3.1l-4.5-4.8l-14.5-5.2l-1.1-1.6l0.7-12.9l-2.1-1.2l-6.8-18.6l-3.9-6l-0.6-5.9l3.6-4.7l-5.5-6.7l-1.3-10.4l0.5-5.2l1.6 3.8l2.9 2.8l-1-6.2l0.1-5l2.6-0.5l-2.6-2.1l-3.5 5.8l-6-5.7l0.1-9.4l-2.5-3.3l-4-8.6l1.2-2.7l-0.4-6.3l2.3-6.3l-1.6-7.8l-3.3-5.9l0.2-4.2l6.8-8.5l4.1-11.3l0.8-9.7v-0.3l15.5 4.6l41.5 11.5zm-51.2 70.1l1.4-1.3l-2.5 0.5zm21 106.7l-0.4 0.1l-0.7-1.4c0 0 1.1 1.3 1.1 1.3zm18 2.2l-1.8-1.3l-0.3-2.5zm-13.7-17.6c0 0-0.2 0.1-0.2 0.1l-0.9-0.4zm-12.7-0.7l-0.7-0.6l2.6-1.6zm-2.4-3.1l-0.9-0.2l0.2-0.8zm12.9 2.8l-0.8 0.6l-4.2-2.4zm-27.8-86.8c0 0-0.1 0.1-0.1 0.1v-0.4zm39 110.3l0.4 2.1v0.4zm-49.4-110.7l-0.1 0.1z" />
</svg>