<svg version="1.2" xmlns="http://www.w3.org/2000/svg" viewBox="0 0 117 91" width="117" height="91">
	<title>CO</title>
	<style>
		.s0 { fill: #f9f9f9;stroke: #000000;stroke-linejoin: round;stroke-width: 1 } 
	</style>
	<path id="CO" class="s0" d="m115.5 28.8v1.9l-0.1 5.7l-1 51.3v2h-1.6l-6.1-0.2l-1.9-0.1l-4.1-0.1l-2-0.1l-3.1-0.1l-21.4-1l-21.6-1.3l-48.9-4.3l-3-0.3l0.2-2.5l0.8-7.7l1.8-17.7l5.3-50.5l0.3-2.6l2.3 0.3l24 2.4l19.2 1.5l28.8 1.9l1.9 0.1l2.4 0.1l23.7 0.8l4.6 0.2l-0.4 19c0 0-0.1 1.3-0.1 1.3z" />
</svg>