<svg version="1.2" xmlns="http://www.w3.org/2000/svg" viewBox="0 0 151 129" width="151" height="129">
	<title>FL</title>
	<style>
		.s0 { fill: #f9f9f9;stroke: #000000;stroke-linejoin: round;stroke-width: 1 } 
	</style>
	<path id="FL" fill-rule="evenodd" class="s0" d="m117.6 126.4l-0.1-0.1h0.2c0 0-0.1 0.1-0.1 0.1zm-0.7-0.1h-0.1v-0.1zm-14.3 1.4v-0.1h0.1zm27.7-6l-0.1-0.2h0.1zm2.4-0.7l0.2-0.3v0.2c0 0-0.2 0.1-0.2 0.1zm-1.2-0.6l0.1-0.1l0.4 0.4c0 0-0.5-0.3-0.5-0.3zm-0.3 0.8l-0.7-1.2l1.2 1.4zm9.9-5.3l-0.2 0.2v-0.4zm1.1-1.2c0 0-0.1-0.1-0.1-0.1l0.4-0.3zm0.2-0.9v-0.1h0.1zm-0.8-1.9c0 0-0.1 0.1-0.1 0.1v-0.2zm-95.6-104.3l3.3 5.2l45.9-5.8l1.3 3.5l1.5-7.5l2.6-2l6.7 0.4l0.1 0.1l0.5 3.1l2.1 2.4l2.7 6.8l4 8.1l3 4.7l12.5 15.3l-0.2 3.9l4.2 8.1l-4.3-6.1l-1.6-8.1l-0.8 0.6l-3.8-3.2l4.5 9.2l7.9 11.3l9.4 15.5l0.4 2l1.7 19l-0.4 1.3l-0.1-0.2l-0.2 0.3l0.2 0.3l-3 10.5l-3.8 2.2l-7.6 2.5l-2.2-2.4l4.7-0.3l-1-0.6l-2.4-1.2l0.3-0.1h-0.4l-6.7-8.5l-4.9-1.3l-3.8-2.3l-2.8-7.6l-4.1-3.3l0.7-6.2l-1.8 1.2l-3.1-0.4l2.5 3.4l-3-0.1l-8.1-11.1l2.4-6l-0.4-3.9l-4.4 0.1l1.6 5.3l-3.4-6.7l-0.6-2.8l1.3-5.4l-0.8-8.6l-4.1-5.5l-3.9 0.8l-19-14.4l-4.7-0.2l-12.6 10.3l-5.3 1.2l-1.7-3.9l-7.2-3.5l-8.3-2.8l1.1-1.6l-4.6-0.7l-6.7 2.4l-5.8 0.2l-3.4 3l-3.1 1.4l1-4l-0.2-0.1l-4.4-10l41.9-6.8l2.8-0.5c0 0-0.1 0.1-0.1 0.1zm87.8 98.9l-0.3 0.1v-0.2h0.2zm8.8 3.2l-0.1-0.3l0.2 0.2c0 0-0.1 0.1-0.1 0.1zm-0.6-0.3c0 0-0.1 0.1-0.1 0.1v-0.2zm3.4-0.3l0.2-0.4v0.1c0 0-0.2 0.3-0.2 0.3zm-3.9 0.2l-0.2-0.1h0.2zm1.6-1.2l0.1-0.1h0.3zm-7-0.2v-0.1v0.1zm1-0.3h-0.3l0.3 0.6zm-2.8-0.4l0.5-0.1v0.6c0 0-0.5-0.5-0.5-0.5zm-0.4-0.2v0.2l-0.5-0.5zm12.6 1.2l-0.5-0.1l1.7-0.8c0 0-1.2 0.9-1.2 0.9zm3-6.6c0 0 0.2-1.8 0.2-1.8l-0.1 1.3zm-0.3-5.8l0.1-0.3l0.3 0.7zm-21.8 3.2l-0.5-0.1l0.2-0.3c0 0 0.3 0.4 0.3 0.4zm-2.3-0.9l-0.7-0.1l0.9-0.3c0 0-0.2 0.4-0.2 0.4zm-1.9-0.4l0.1-0.1v0.3c0 0-0.1-0.2-0.1-0.2zm-1.7 0.9l-0.8-0.4l0.6-0.4zm2.5-0.7c0 0-0.6-0.4-0.6-0.4l0.5 0.1zm-12.1-8.8l-1.2-0.4l0.6-0.3zm-3.4-4.1l-0.3-0.8l0.8 1.1zm1.2-1.1l0.9 0.2l1.4 3.2zm-2.1-1.8l0.2 0.5l0.3 0.8zm-8.6-10.1l-0.7-0.7l1.8 1.3zm37.2-17.8h0.4l7.1 11.8zm-41.5-7l-0.3-0.1l0.3 0.1c0 0 0 0 0 0zm-0.6-0.5l-0.1-0.1l0.1-0.1c0 0 0 0.2 0 0.2zm-0.8-1.2l0.1-0.1v0.1zm0.8-0.4v0.2l-0.3-0.2zm0-0.3h-0.1l0.4-0.1c0 0-0.3 0.1-0.3 0.1zm-1-1.1l-0.3-0.1h0.2zm0.1-1.2l0.1-0.1h0.4zm0.4-0.4l0.2 0.1c0 0 0.3 0.4 0.3 0.4zm-3.4-3.7v-0.1l0.2 0.1zm-4 0c0 0-0.2 0.1-0.2 0.1l-0.1-0.5zm-35.6-3.3l3.2-2.1l-2.9 2.2c0 0-0.3-0.1-0.3-0.1zm5.2-4.3l1.2-0.5l-0.3 0.3zm-40.8-5l-5.8 1.7l10.6-3.4zm127.3 84l-0.3-0.1l0.2-0.1c0 0 0.1 0.2 0.1 0.2zm-25.4 16.2v-0.1zm-13.2 1.5v0.1zm-0.2 0.1v-0.1zm37.2-14.2l-0.1-0.1zm-1.8-1.5l-0.1-0.1zm5.4-4.4h-0.1zm-50.7-62.9l-0.3-0.3l0.1 0.1c0 0 0.2 0.2 0.2 0.2z" />
</svg>