<svg version="1.2" xmlns="http://www.w3.org/2000/svg" viewBox="0 0 91 94" width="91" height="94">
	<title>GA</title>
	<style>
		.s0 { fill: #f9f9f9;stroke: #000000;stroke-linejoin: round;stroke-width: 1 } 
	</style>
	<path id="GA" fill-rule="evenodd" class="s0" d="m38.8 6.8l0.5 2l8.8 3.7l4.6 5.8l18.7 15.7l4.4 2l7.9 11.4l5.8 5.4h0.1l-3.4 4.2l1.5 1.4l-2 2.2l-1.4 4l0.7 4.1l-1.3 2.3l0.6 10.5l-6.7-0.4l-2.6 2l-1.5 7.5l-1.3-3.5l-45.8 5.7l-3.3-5.1l0.1-0.1v-0.1l-2.7-5l-0.2-7.1l-2.1-3.8l1.1-7.6l1.7-2l-7.2-12.8l-13-39.6l-0.1-0.2l1.8-0.2l8.2-1.5l2.1-0.4l7.5-1.4l1.4-0.2l1.3-0.3l13.5-2.9l3.7-0.7l1.3-0.3c0 0-2.7 5.3-2.7 5.3zm47.4 55l0.3-1.4l0.4 2.2zm-1.1 5l0.6-2.5l0.1 2.9c0 0-0.7-0.4-0.7-0.4z" />
</svg>