<svg version="1.2" xmlns="http://www.w3.org/2000/svg" viewBox="0 0 422 221" width="422" height="221">
	<title>HI</title>
	<style>
		.s0 { fill: #f9f9f9;stroke: #000000;stroke-linejoin: round;stroke-width: 1 } 
	</style>
	<path id="HI" fill-rule="evenodd" class="s0" d="m416.3 200.5l0.1 2.7l5.3 4.5l-5.4 4.6l-4.8 1.2l-4 3l-2.2 3.5l-3.6-2.3l-0.9-7.3l-3.1-7.1l3.6-4.4l-0.6-5.5l2.6-0.6l3 2.2c0 0 10 5.5 10 5.5zm-30.4-12.8l1.3-1.8l1.5 1.2zm-5.9-8.6l1.8 0.3l-0.4 3.6zm13.5-0.5l5.6 4.7l-6 2.8l-2.7-1.2l-0.8-3.2l-2.5-0.2l-1.2-3.7l1.7-0.8zm-13.2-5.2l2 3.2l-3.9-1l-4.1 0.1l0.8-2.6c0 0 5.2 0.3 5.2 0.3zm-14.2-4.9l0.5 2.3l-5.5-1.2l-2 2.1l-2.7-5.1l4.3-3.3l2.2 2.1zm-46.7-7.2l0.6-1.4l1.7-0.9zm17.1-6.9l-2.7 5.4l-3.8-1l-2.7-1.9l0.7-1.9l6.8-2.5zm-49-19.9h0.2v0.1zm-51.2-12.4h-0.1v-0.2zm-29.2-7.5v-0.1h0.2zm-29.8-25.4v-0.1l0.1 0.3c0 0-0.1-0.2-0.1-0.2zm-66.5-20.7l-0.2-0.1l0.3-0.3zm-109.5-67.8v0.2l-0.3 0.1zm207.9 116.7l0.1 0.1zm-1.2-2.9h-0.1zm-0.1-0.1v0.1zm-164.9-95.2h-0.1z" />
</svg>