<svg version="1.2" xmlns="http://www.w3.org/2000/svg" viewBox="0 0 100 66" width="100" height="66">
	<title>IA</title>
	<style>
		.s0 { fill: #f9f9f9;stroke: #000000;stroke-linejoin: round;stroke-width: 1 } 
	</style>
	<path id="IA" class="s0" d="m90.4 20.2l-0.2 0.5l3.7 2.3l1.2 2.3l3.9 3.7l-0.1 3.1l-2.2 6.1l-4.8 3.5l-4.4 0.9l-0.9 5.1l1.5 0.6l-1.5 9.9l-3.5 2.3l0.6 3.8l-0.8 0.3l-0.2-0.2l-4.8-4.1l-20.9 2.6l-21.2 1.8l-19.9 0.6v-0.3l-3-12.2l0.6-1.9l-3.3-4.6l-0.2-5.4l-3-4.8l-3.1-9.1l-0.7-0.1v-0.7l-2.2-3.2l1.4-5.1l-1.7-10.8l2.1-0.1l4.8-0.3l19.2-1.1l47.7-4l4.8-0.4l2.8 3.4l-0.8 2.6l1 5.7l2.9 4l5.3 2.8c0 0-0.1 0.5-0.1 0.5z" />
</svg>