<svg version="1.2" xmlns="http://www.w3.org/2000/svg" viewBox="0 0 97 157" width="97" height="157">
	<title>ID</title>
	<style>
		.s0 { fill: #f9f9f9;stroke: #000000;stroke-linejoin: round;stroke-width: 1 } 
	</style>
	<path id="ID" class="s0" d="m43.2 3.9l-4.2 19.8l1.9 3.6l1.4 5.5l-0.9 0.8l1.9 5l2.5 2.2l7.2 12l0.7 2l2.9-0.2l-3.4 16l-1.4 0.4l-1.8 5.3l9.6 0.7l0.8 4.4l5.4 13.3l1 0.8l3.8 7.8l0.9-0.8l8.1-0.1l10.2 1.1l2.5-3.3l3 5.4l0.6 0.3l-0.4 3.2l-1.7 12.5l-3.3 25.3l-0.9 6.3l-0.4 3.2l-2.8-0.4l-25.1-3.8l-13.9-2.2l-2.8-0.5l-2.8-0.5l-10.9-2l-27.5-5.5l-2.7-0.6l0.4-2l9.2-38.2l-2.6-6.3l0.3-2.4l10.1-13.2l4.7-11.9l-3.3-3.6l-0.1-1.9v-0.1l-0.2-0.9l0.4-4.4l-0.5-4.2l11.3-50.6l1.2 0.3l2.9 0.6l8.6 1.8c0 0 0.1 0 0.1 0z" />
</svg>