<svg version="1.2" xmlns="http://www.w3.org/2000/svg" viewBox="0 0 68 116" width="68" height="116">
	<title>IL</title>
	<style>
		.s0 { fill: #f9f9f9;stroke: #000000;stroke-linejoin: round;stroke-width: 1 } 
	</style>
	<path id="IL" class="s0" d="m30.6 3.8l7.9-1l13.1-1.9v0.2l0.8 5.7l2.1 2.1l2.5 5.7l1 1.1l6.8 47.8l-1.4 5.2l2.4 4.6l0.8 3.7l-3.7 8.7l-2.1 1.5l-0.1 8.7l0.4 0.1v0.3l-1.5 3.3l1.7 2.3l-6.1 3.6l1.4 4.3l-1.8 2.1l-7.5-2.1l-2 4.6l0.6 0.6l-0.3-0.1l-6.9-5.6l1.1-2.1l-1.9-5.5l-3.5-2.7l-6.6-2.9l-4.2-3.4l0.5-7l1.3-6.5l-7 0.4l-2.2-2.3l-0.9-4.4l-11.1-9.4l-3.1-8.6l0.8-4.3l0.8-0.3l-0.6-3.8l3.5-2.3l1.5-9.9l-1.5-0.6l0.9-5.1l4.4-0.9l4.8-3.5l2.2-6.1l0.1-3.1l-3.9-3.7l-1.2-2.3l-3.7-2.3l0.2-0.5z" />
</svg>