<svg version="1.2" xmlns="http://www.w3.org/2000/svg" viewBox="0 0 53 90" width="53" height="90">
	<title>IN</title>
	<style>
		.s0 { fill: #f9f9f9;stroke: #000000;stroke-linejoin: round;stroke-width: 1 } 
	</style>
	<path id="IN" class="s0" d="m41.6 2.5l0.3 1.5l2.6 14.7l5.9 34.4l0.2 1.6l-0.2 0.2l1.2 4.8l-5.2 4.1l-4.3 0.1l1 3.7l-6.1 8.1l0.1 2.8l-6.9-0.6l-2.5 5l-4.7-0.7l-3.1 2.3l-0.6 2.2l-5.4-2l-4.4 1.5h-3.6l-1.4 2.7l-0.4 0.1l-0.4-0.1l0.1-8.7l2.1-1.5l3.7-8.7l-0.8-3.7l-2.4-4.6l1.4-5.2l-6.8-47.8l0.5 0.6l1.8 0.9l1.5 0.1l3.7-1.8l2.6-2l12-2l3.4-0.7l14.8-2.6c0 0 0.3 1.3 0.3 1.3z" />
</svg>