<svg version="1.2" xmlns="http://www.w3.org/2000/svg" viewBox="0 0 120 68" width="120" height="68">
	<title>KY</title>
	<style>
		.s0 { fill: #f9f9f9;stroke: #000000;stroke-linejoin: round;stroke-width: 1 } 
	</style>
	<path id="KY" class="s0" d="m2.1 66.5l-1.1 0.1l-0.1-0.1l0.4-1.3l0.6 0.2l0.3 0.8c0 0-0.1 0.3-0.1 0.3zm67.2-64.6l4.8-0.6l2.5 1.3l5 4.3l1.3-0.6l5.3 2.3l2.5-1.9l2.9 1.1l2.3-0.5l3.7-3.6l1.9 3.1l4 2.3l0.2 0.2v0.2l2 6.8l5.5 6.7l3.1 1.7h2.4l0.3 0.1l-0.6 1l-4.7 5.9l-3.7 2.9l-0.8 2.6l-5.6 7.3l-7.3 3.9l-0.7 0.8l-0.3 0.3l-27.8 4.6l-39.5 5.3l-3.3 0.1l1 3.9l-19.6 2.6l-2.9 0.4l0.1-0.3l2.6-1.6l0.4-0.2l0.8-7.9l-0.2-0.4l-0.6-0.6l2-4.6l7.5 2.1l1.8-2.1l-1.4-4.3l6.1-3.6l-1.7-2.3l1.5-3.3v-0.3l0.4-0.1l1.4-2.7h3.6l4.4-1.5l5.4 2l0.6-2.2l3.1-2.3l4.7 0.7l2.5-5l6.9 0.6l-0.1-2.8l6.1-8.1l-1-3.7l4.3-0.1l5.2-4.1l-1.2-4.8l0.2-0.2z" />
</svg>