<svg version="1.2" xmlns="http://www.w3.org/2000/svg" viewBox="0 0 97 81" width="97" height="81">
	<title>LA</title>
	<style>
		.s0 { fill: #f9f9f9;stroke: #000000;stroke-linejoin: round;stroke-width: 1 } 
	</style>
	<path id="LA" fill-rule="evenodd" class="s0" d="m64.2 80.2l0.5-0.6l1.3-0.3zm5-0.9l0.2-0.3l0.7 0.3zm2.2-0.3l0.3-0.5h0.7zm-21.7-77.3l2.2 5.2l-0.2 3.2l3.6 4.4l-7.4 12.6l-1.1 7.6l-2.1 3l1.4 3.5l-1.3 1.2l33.5-3.6l-1.1 4.6l4.2 8.4l2.3 2.8l-4.1-0.4l-5.7-1.9l-3.3 0.1l-2.8 5l1.8 1.3l6.1-0.3l4.3-3.1l1.7 0.5l-2.6 4.3l3.8 0.7l1.6-4l3 4.2l-2.3 4.7l-3-0.4l0.1 3l2.7 1.5l7.3 1.9l1.6 2.1l-4.3 4.1l0.4-2.1l-3.1-2.5l-6.3-0.8l-0.5-1.7l-5.3-2.1l0.6 5.9l-1.9 3.7l-2.9-4.1l-3.9 2.1l-1.9 2.2h-3.1l-8.2-2.4l3.6-1.2l-5.9-4l-2.2 0.8l-2.6-4.1l-3.2 0.8l0.2-2.2l-6.2 2l1.8 2.4l-3.4 2.4l-6.7-0.9l-9.4-2.6l-12 1.4l1.6-2.4l-0.3-2.5h-0.2l1.5-3.6l0.7-11l0.8-4.5l-2.5-8l-3.1-5.4l-0.1-2.6l-3.2-4.5l-1.9-18.7l-0.1-2.3l3-0.3l9.2-0.7l36.6-3.4h0.2c0 0 0 0.7 0 0.7zm29.6 71.2h-0.5l0.3-0.2zm13.3-5.8l0.7-0.9l-0.6 0.8c0 0-0.1 0.1-0.1 0.1zm1.8-2.4v-0.1l0.2-0.1c0 0-0.2 0.2-0.2 0.2zm-53.9 6.9l1.7-1.5l4 1.1l-1.5 1.8zm44.6-7l-0.4-0.4l-0.1 0.2zm1.1-1.7l-1-0.3l0.3 1zm9.9-2.8l-0.1-0.2l0.1 0.1c0 0 0 0.1 0 0.1zm-0.8-0.3c0 0-0.3 0.2-0.3 0.2l0.1-0.3zm-5.9-0.9v0.3l-0.9 0.3zm0-0.5l0.1 0.1l-0.5 0.5c0 0 0.4-0.6 0.4-0.6zm-3.9-2.8h-0.1l0.2-0.2c0 0-0.1 0.2-0.1 0.2zm-14.3 22.3l0.1-0.3l0.2 0.3c0 0-0.3 0-0.3 0zm23-16.7v-0.3v0.1c0 0 0 0.2 0 0.2z" />
</svg>