<svg version="1.2" xmlns="http://www.w3.org/2000/svg" viewBox="0 0 56 33" width="56" height="33">
	<title>MA</title>
	<style>
		.s0 { fill: #f9f9f9;stroke: #000000;stroke-linejoin: round;stroke-width: 1 } 
	</style>
	<path id="MA" fill-rule="evenodd" class="s0" d="m45.3 32.1c0 0-0.3 0-0.3 0v-0.2zm-29.3-21.5l12.2-4.1l5.6-6l0.1 0.2l1.3 3.2l3.3 0.2l-3.2 3.4l3.2 4.9l7.2 7.6l3.6-0.3l3.2-2.4l-0.7-3.3l2.6 5.1l-6.2 3.3l-0.8 2l-3.8-1.3l-4.6 5.6l-0.9-1.7l-0.3-1.2h-0.9l0.1-2.3l-0.3 1.5l-0.6 0.5l-4.3-5.2l-4.4 1.8l-1.3 0.4l-0.1-0.1l-14 5.3l-0.2-0.5l-7.8 2.3l-1.8 0.5l-0.5-0.3l-0.3-4.2l-0.2-4.7l-0.3-5v-0.3l0.7-0.3l2.3-0.7l1.9-0.7l5.5-1.6l0.7-0.3c0 0 4-1.3 4-1.3zm38.2 9.1l0.1 0.8l0.1 1.4zm-11 9v0.4l-0.7 0.3z" />
</svg>