<svg version="1.2" xmlns="http://www.w3.org/2000/svg" viewBox="0 0 75 37" width="75" height="37">
	<title>MD</title>
	<style>
		.s0 { fill: #f9f9f9;stroke: #000000;stroke-linejoin: round;stroke-width: 1 } 
	</style>
	<path id="MD" class="s0" d="m73.5 31.7l-0.3 0.1l0.1-0.2l0.4-1.7l0.5-3.9l-0.6 5.3c0 0-0.1 0.4-0.1 0.4zm0.6-7.6v-1.2l-0.2-0.6l0.2-0.1c0 0 0 1.9 0 1.9zm-71.7-8.4l6.9-1.8l38-10.6l6.9-2.1l1.6-0.5l0.4 1.5l8 23l9.3-2.8v0.1l0.5 2v0.3l-2.6 7.4l0.1 0.2l-1.2 0.5l-2 0.9l-0.7 0.9h-0.1l-2.1-2.5l-3.3 0.1l0.2-4.7l-1.9 3.4l-3.5-1.2l-2.2-4l4.1-1.3l-4.7-1.8l1.6-3.9l-0.9-5.5l-1.5 3.3l-1.7-2.8l0.6-8.3l-1.5 5.6l-2.2 1.7l2.1 4.4l-0.5 4l1.8 6.9l2.4 2.3l-2.7-0.4l-3.2-4.3l1.3 4l5.1 1.8l1.7 4.6l-4-1.8l-6-0.3l-6-3.9l1.8-5.6v-0.1l1.3-2.3l-1.4-0.8l-1.6 0.1l-0.4 0.7l-0.3-0.2l-3.1-1.4l-3.2-2.3l-4.5-1.2l-0.3-0.1l-2.8-4.8l-5.8-0.7l-3.4 2.6v1.9l-2.9 0.7l-4.3 3l-2.2 0.5l-4.5 6.3l-2.2-10.2c0 0 1.7-0.5 1.7-0.5z" />
</svg>