<svg version="1.2" xmlns="http://www.w3.org/2000/svg" viewBox="0 0 60 98" width="60" height="98">
	<title>ME</title>
	<style>
		.s0 { fill: #f9f9f9;stroke: #000000;stroke-linejoin: round;stroke-width: 1 } 
	</style>
	<path id="ME" fill-rule="evenodd" class="s0" d="m23.9 97.5l-0.2-0.1h0.1c0 0 0.1 0.1 0.1 0.1zm-22.8-42.7l2.5 0.4l2.3-4.5l-1.9-1.4l2.8-9.2l-1.1-11.8l-1.2-5.8l3.6-17.9l2.5-1l1.8 3.4l2.2 0.4l7.8-6.6l7.1 3.7l9.7 21v4l3.6 1.2l3.2-1v2.4l2 4l5.2 1l3.2 3.2l1.8 1.8l-2.2 5.1l-0.5 0.4h-0.1v0.1l-4.2 3.5l-1.8-0.4l-0.5 4.4l-7.3 2.8l0.2 1.3l-0.1-0.1v0.6l0.2 0.1l0.4 2.1l-5.9 0.4l-1.3 7.7l-3.7 4.5l-1.8 0.8v-0.7l-0.1-0.6l0.1 1.3l-3.9 1.8l-1.6 5.1l0.9 0.8l-1 5.2l-1.6 1.9l-0.2 5.5l-0.9 0.3v0.1l-6.1-7.4l-0.2-0.7l-14.1-33c0 0 0.2-0.2 0.2-0.2zm28.5 20.6v0.3zm3.5-3.9l-0.2-0.1l0.1 0.3c0 0 0.1-0.2 0.1-0.2zm9.2-5.6l0.3-0.7l0.2 1.5zm-2.9 0.5l1.2-0.2l-0.1 1zm4.3-2.1v-0.2h0.4zm-5.5 1.9l0.1-0.8l0.9 0.2c0 0-1 0.6-1 0.6zm6.5-3.7l0.3 0.7l-0.9-0.6zm-2.9 1.2l-1.1 0.6l0.8-1.6zm-4.5 0.4l-0.3-0.8l0.4-0.6c0 0-0.1 1.4-0.1 1.4zm5.4-4.9l0.3-0.5l0.1 0.8c0 0-0.4-0.3-0.4-0.3zm-0.7 0.6l-0.1-0.6l0.7 0.7zm-4.8 2.3l-0.2-1.1l-0.4 0.9zm9.2-3.4l-1.4 2.1l-0.1-1.5c0 0 1.5-0.6 1.5-0.6zm6-7.3l0.4-0.2l0.7 1zm3-3.6l0.1-0.2l0.1-0.1l0.5 0.3c0 0-0.7 0-0.7 0zm1.1-7.6h0.9c0 0 0.1 0.3 0.1 0.3zm1.2-0.9l0.8 0.1l0.3 1.8zm-1.4-0.3l0.7-1.3l0.2 1.9zm-26.1 36.9v-0.5l0.8 1.1z" />
</svg>