<svg version="1.2" xmlns="http://www.w3.org/2000/svg" viewBox="0 0 127 127" width="127" height="127">
	<title>MI</title>
	<style>
		.s0 { fill: #f9f9f9;stroke: #000000;stroke-linejoin: round;stroke-width: 1 } 
	</style>
	<path id="MI" fill-rule="evenodd" class="s0" d="m65.6 126.1l4.7-10.7l0.9-9.5l-0.9-5.2l-7-13.4l1-3.3l-0.8-6.9l1.4-5.6l-1.1-5.3l2.1-1.7l3.2-5l2.8-5.7v7.5l3-2.1l-0.7-6l3.1-3.9l-0.4-4.4l4.1-5l9 2.6l1 1.5l9.7 1.6l4.4 9.7l-0.3 11.5l-2.9 6.5l-1.3 0.5l1 6.5l3.2 0.5l3.3-6.2l-0.7-0.8l6.3-4.4l1.7 0.5l3.4 3.8l3.9 10.3l2.6 4.8l0.3 7.8l-1 2l-2.9-1.6l-3.5 9l0.2 5.2l-3.2 6.3l0.1 0.3l-6.2 1.6l-6.1 1.4l-6.4 1.4l-1 0.3l-0.3-1.3l-14.8 2.6l-3.4 0.7l-12 2zm-65.3-90l7.6-5.7l5.3-1.4l9.5-9l0.2 1.7l2.9 0.9l-2.8-2.7l8.9-4.4l-3.6 4.4l-1.2 3.1l10.5 3.2l6.6 5.7l3.3-1.4l5.2 1.2l1-1.9l8.6-5.3l4.7-0.3l7.4-3.4l-0.6 1.3l1.8 4.2l5.4 0.7l5.9-3.3l-0.6 6.3l3 1.7l1.7 2.7l-6.8 1.1l-1.6-1l-1.6 4.3l-3.4-1.7l-8.7-1.1l-0.7 1.3l-8.7 3.3l-3.5 5.6l-0.6-3.5l-3.5 3.9l-4.6 3.2l-3.8 10.9v0.1l-4.6-4.6v-6.6l-5.3-4.3l-7.2-0.5l-7.3-1.9l-16-4.9l-3.1-1.7c0 0 0.3-0.2 0.3-0.2zm66.1 13.7v-0.2l1 0.9zm-2.1 9.6l0.1-1l0.5 0.8c0 0-0.6 0.2-0.6 0.2zm20.4-19.1l-1.5-1.1l2.5-0.2zm-13.7 1.5l-0.8-0.4h0.7c0 0 0.1 0.4 0.1 0.4zm15.6-14.1l0.4-0.1l0.9 1.5c0 0-1.3-1.4-1.3-1.4zm-21.6 28.8l0.2-0.7l1.2 1.6zm-30.7-42.4l-2.5 1.3l0.3-0.4zm-14.8-9.8l-6.1 4.5l0.4-2.6l7.8-5.4z" />
</svg>