<svg version="1.2" xmlns="http://www.w3.org/2000/svg" viewBox="0 0 106 122" width="106" height="122">
	<title>MN</title>
	<style>
		.s0 { fill: #f9f9f9;stroke: #000000;stroke-linejoin: round;stroke-width: 1 } 
	</style>
	<path id="MN" class="s0" d="m2.5 9.8l14.7-0.6l11.8-0.9l-0.4-7.5l4.5 1.3l0.4 2.6l3.5 8.7l10.3 1.5l1.2 1.9l6.5-2.8h4.1l4.6 1.5l-1.2 1.3l3.6 1.9l5.3-0.4l1.9 2.2l6.7 2.8l8.3-3.4l1.5 1.8l9.3-1.3l2.4 1.9l4.1-0.8l-6.1 4.6l-5.8 2.8l-3.3 2.3l-8.7 11.1l-7.5 7.9l-2.3 2.5l1.1 11.7l-6.2 5.6l-1.2 5.5l3.4 3.1l-1 13.4l3.6 2.7l2.4 0.2l7.3 4.4l4.7 4.9l5.9 3l1.4 7.5v0.5l-4.8 0.4l-47.7 4l-19.2 1.1l-4.8 0.3l-0.2-4.5l-4.9-34.1l-2.5-4.3l3.9-6.4l0.1-0.3l-0.4-1.5l-0.5-4.4l-2.2-5.3l-0.6-8.7l-1.9-9.9l-4.1-24.9l-2-6.9z" />
</svg>