<svg version="1.2" xmlns="http://www.w3.org/2000/svg" viewBox="0 0 113 94" width="113" height="94">
	<title>MO</title>
	<style>
		.s0 { fill: #f9f9f9;stroke: #000000;stroke-linejoin: round;stroke-width: 1 } 
	</style>
	<path id="MO" class="s0" d="m67.9 5.6l-0.8 4.3l3.1 8.6l11.1 9.4l0.9 4.4l2.2 2.3l7-0.4l-1.3 6.5l-0.5 7l4.2 3.4l6.6 2.9l3.5 2.7l1.9 5.5l-1.1 2.1l6.9 5.6l0.3 0.1l0.2 0.4l-0.8 7.9l-0.4 0.2l-2.6 1.6l-0.1 0.3v0.1l-0.7 0.9l-0.4-0.1v-0.7v-0.1l0.1-0.3l-0.3-0.8l-0.6-0.2l-0.4 1.3l0.1 0.1l0.1 0.1l0.6 2.7l-2 2.4l-0.1 4.5v0.8h-0.1l-10.5 1.5l4.2-6.8l-1.8-3.8l-37 3.6l-31.2 2.5l-4.6 0.3l-0.1-2.5l-0.2-2.6l-0.1-2.5l-0.2-2.6l-0.1-2.5l-2.4-41l-4.4-2.6l-0.4-1.9l-3.5-3.1l3.4-4.2l-1.3-2.4l-2.5 0.1l-2.4-1.7l-0.9-0.7l-0.4-0.4l-2.6-4.7l-2.3-1.5l-2.4-4.7l0.1-0.6l19.9-0.6l21.2-1.8l20.9-2.6l4.8 4.1c0 0 0.2 0.2 0.2 0.2z" />
</svg>