<svg version="1.2" xmlns="http://www.w3.org/2000/svg" viewBox="0 0 60 101" width="60" height="101">
	<title>MS</title>
	<style>
		.s0 { fill: #f9f9f9;stroke: #000000;stroke-linejoin: round;stroke-width: 1 } 
	</style>
	<path id="MS" fill-rule="evenodd" class="s0" d="m18.3 5.1l19.4-2.4l8.6-1.2l4.8-0.7h0.2l0.4 0.8l1.4 0.9l0.5 39.8l0.2 21.8l5 29.9v0.1l-1.1 1.4l-7-0.8l-7.5 1.7l-3.6 4v0.1l-2.3-2.8l-4.2-8.3l1.1-4.7l-33.5 3.7l1.3-1.3l-1.4-3.5l2.1-3l1.1-7.5l7.4-12.7l-3.6-4.3l0.2-3.2l-2.2-5.3v-0.6l-0.1-2.2l1-0.7l-1.8-3.3l3.7-15.5l-1.4-1.7l5.5-6.2l-0.4-5.2l4.1-6.8v-0.1c0 0 2.1-0.2 2.1-0.2zm40.4 92.6l-1.3-0.1h1.4zm-11.5 1.4l-0.1-0.1l0.4-0.4c0 0-0.3 0.5-0.3 0.5zm9.3-1.2l-3.5-0.1h3.6zm-7.1 1.1v-0.1l0.5-0.1c0 0-0.5 0.2-0.5 0.2z" />
</svg>