<svg version="1.2" xmlns="http://www.w3.org/2000/svg" viewBox="0 0 164 104" width="164" height="104">
	<title>MT</title>
	<style>
		.s0 { fill: #f9f9f9;stroke: #000000;stroke-linejoin: round;stroke-width: 1 } 
	</style>
	<path id="MT" class="s0" d="m163.5 21.1l-0.1 3.9l-1.3 23.6l-1.5 30.5l-0.2 3.9l-0.1 2.2l-0.4 8.9l-0.3 6.7l-0.1 1.3h-0.3l-1.2-0.1l-25-1.4l-14-1.2l-26.5-2.5l-33.1-4.1l-1.4 9.5l-0.1 0.6l-0.6-0.3l-3-5.4l-2.5 3.3l-10.2-1.1l-8.1 0.1l-0.9 0.8l-3.8-7.8l-1-0.8l-5.4-13.3l-0.8-4.4l-9.6-0.7l1.8-5.3l1.4-0.4l3.4-16l-2.9 0.2l-0.7-2l-7.2-12l-2.5-2.2l-1.9-5l0.9-0.8l-1.4-5.5l-1.9-3.6l4.2-19.8l2.7 0.6l25.8 4.9l11.6 2l23.1 3.5l14.4 2l23.3 2.7l23.4 2.2l32.2 2.2c0 0 1.8 0.1 1.8 0.1z" />
</svg>