<svg version="1.2" xmlns="http://www.w3.org/2000/svg" viewBox="0 0 142 68" width="142" height="68">
	<title>NC</title>
	<style>
		.s0 { fill: #f9f9f9;stroke: #000000;stroke-linejoin: round;stroke-width: 1 } 
	</style>
	<path id="NC" fill-rule="evenodd" class="s0" d="m37.8 24.5l25-4.7l24.8-6.3l38.8-11l2.2 1.9l3.2 4.8l-3-1.8l-1.2 3.3l-4.5 1.1l-0.2 1.6l-4.3 4.2l9.6-4l1.3 0.3l1.6 6.3l-0.4-5.1l2.2-2.1l2.2 2.2l0.3 5.3l-1.7 0.5l-2 3.8l-2.6 1.9l-3.2 0.3l-2.5-1.2l-7.8 1.4l0.4 0.5l9.1 1.5l-1.6 3.5l1.4 1.5l-4.7 3.5l3.9-0.1l4-1.4l1.2-2.2l-1 6.4l-2.1-1l-1.1 2l-8 5.3l-3.9 3.7l-3.6 6.5v1.4l-0.1 0.1l0.1 0.2l-0.1 3.7l-10 4l-0.4 0.3l-21.6-13.7l-8.1 1.6l-11-0.4l-5.4-2.8l-32.2 10.2h-0.3l-1.3 0.3l-3.7 0.7l-13.5 2.9l-1.3 0.3v-1l-0.1-4.3l3.6-1.9l0.2-2.6l4.1-3.7l3.8-1l8-7.2l3-4.5l2.3 0.9l5.3-5.1l2.8-0.3l2.5-5.2l1.1 0.1l-0.1-4.1l0.5-1.5c0 0 0.1 0.2 0.1 0.2zm71.9 34.7l-0.1-0.6v-0.3l0.4-0.7zm3.9-8.4l0.7-1.2l1.5-1zm14.8-8.2c0 0-1.9-0.5-1.9-0.5l1.3 0.1c0 0 0.6 0.4 0.6 0.4zm-5 0.2l1.5-0.8h0.8zm6.2-3.8l2-2.9l-2.8 7zm3.9-7h0.6l-1.2 1.8zm7.5-5.7l-2.1-10.8l1.9 5.7zm-2.8-11.2l-4.1-4.2l-5.4-9h-0.1l0.3-0.1l0.2-0.1c0 0 9.1 13.4 9.1 13.4zm-10.7-12.7l0.2-0.1v-0.2h0.2l0.3-0.1l0.2 0.6h-1.6l-0.2-0.1l0.8-0.2c0 0 0.1 0.1 0.1 0.1zm-19.3 62.2l-0.1-0.2l1-1.1z" />
</svg>