<svg version="1.2" xmlns="http://www.w3.org/2000/svg" viewBox="0 0 138 64" width="138" height="64">
	<title>NE</title>
	<style>
		.s0 { fill: #f9f9f9;stroke: #000000;stroke-linejoin: round;stroke-width: 1 } 
	</style>
	<path id="NE" class="s0" d="m116.2 10.9l0.7 0.1l3.1 9.1l3 4.8l0.2 5.4l3.3 4.6l-0.6 1.9l3 12.2v0.3l-0.1 0.6l2.4 4.7l2.3 1.5l2.6 4.7l0.4 0.4l-3.3 0.2l-35.9 1.3l-16.4 0.4h-32.6l-13.1-0.2l-3.7-0.1l0.1-1.3l0.4-19l-4.6-0.2l-23.7-0.8l-2.4-0.1l0.1-2.6l0.5-10.2l0.9-17.7l0.4-7.6l0.1-2.5l2.9 0.1l32.9 1.1l27.9 0.2l19.1-0.2l6.1 3.9l5.1-1.4l3.4 0.1l10.6 3.1l3 3c0 0 1.9 0.2 1.9 0.2z" />
</svg>