<svg version="1.2" xmlns="http://www.w3.org/2000/svg" viewBox="0 0 24 50" width="24" height="50">
	<title>NJ</title>
	<style>
		.s0 { fill: #f9f9f9;stroke: #000000;stroke-linejoin: round;stroke-width: 1 } 
	</style>
	<path id="NJ" fill-rule="evenodd" class="s0" d="m18.1 11.4l-1.1 4.7l4.5-0.1l0.7 3.4v10.3l-2 4.8l1 4l-2.7 1.8l-0.4 5.4l-2.6 3.6l-0.1-4.4l-11.5-3.9l-0.4-5.3l4.7-7l0.2-0.3l-3.8-9.9l-1.8-0.3l0.1-6.5l-1.8-2.2l4.1-9l1.7 0.4l1.7 0.5l10.2 2.5c0 0-0.7 7.5-0.7 7.5zm4.4 21.9l0.6-2.5l-0.3 2.9zm-1.2 4v-1.2l0.5 1.2z" />
</svg>