<svg version="1.2" xmlns="http://www.w3.org/2000/svg" viewBox="0 0 104 159" width="104" height="159">
	<title>NV</title>
	<style>
		.s0 { fill: #f9f9f9;stroke: #000000;stroke-linejoin: round;stroke-width: 1 } 
	</style>
	<path id="NV" class="s0" d="m86.3 119.9v0.2l-4.2 18.9l-2.3-0.1l-3.4-3l-4.2 3.5l-0.1 15.5l-1.6 3.3v0.3l-2.5-3.4l-7.8-10.4l-15-21.2l-21-30.1l-11.8-16.4l-11.5-16.5l13.2-56l0.9-3.7l2.7 0.7l24.6 5.8l13.7 3.1l2.7 0.5l2.7 0.6l27.5 5.5l10.9 2l2.8 0.5l-0.5 3.1l-5.2 31.4l-10.1 62.8c0 0-0.5 3.1-0.5 3.1z" />
</svg>