<svg version="1.2" xmlns="http://www.w3.org/2000/svg" viewBox="0 0 122 93" width="122" height="93">
	<title>NY</title>
	<style>
		.s0 { fill: #f9f9f9;stroke: #000000;stroke-linejoin: round;stroke-width: 1 } 
	</style>
	<path id="NY" fill-rule="evenodd" class="s0" d="m90.7 92.4l0.4-0.6l1.4-2zm21.1-15.2l2.3-0.9l7.3-5.6l-10.3 9.7l-0.3 0.2v-0.1l-0.1 0.2l-6.4 3.3l-6.1 5l-4.2 1.6l-0.4-2.9l2.7-2.2l0.2-2.1l2.7-2.3l9.9-4.2l6.6-6.1l-0.9 1.4h-0.2l-0.2 0.6zm-18.8 9.2l0.3-1.7v3.3zm21.5-13.4v-0.2l0.4-0.6l0.9 0.2zm4-2.3c0 0 0.1 0.4 0.1 0.4l-0.2 0.6zm-7.7 9.9l0.1-0.1v0.2l-4.8 4.2zm7.2-13.1l1.2-1.4l-0.4 0.6zm-116.7 14.1c0 0 0.1-0.1 0.1-0.1l7-8.2l1.7-8.5l-0.7-0.7l0.3-0.9l-1.6-0.2l0.1 0.1l-1.2-1l-0.4-2.8l8.8-5.4l9.5-1.3l2.4 0.9l12.8-7.7l4.3-5.7l-1.1-6.8l-1.3-0.5l0.1-0.4l-0.3 0.3l-2.2-0.7l6.1-9.1l-0.2-2l4.5-8.7l4.1-4.4l20.3-6.8l0.6-0.3l4.3 10.2l1.5 9.6l5.1 8.1l4.9 15.9l0.2-0.1v0.3l0.3 5.1l0.3 4.6l0.3 4.3l0.5 0.3l0.1 0.9l3.7 14.3l1.2 1.5l-2.5 3.1l1.7 1.6v0.1l-1 4.4l-2 0.5l-0.8-3.5l-10.1-2.5l-1.7-0.5l-1.7-0.4l-0.1-0.4l-6.4-2.7l-1-2.4l-5.5-4.2l-29.7 8.9l-29.5 8.1l-5.1-1.3zm91.6 0.3l-0.2-0.5l0.1 0.5zm-51.6-48.6l0.5-0.6l0.2 0.1l-0.1 0.6c0 0-0.6-0.1-0.6-0.1zm0.2-5.6l0.5-1.1l0.4-0.2zm-32.3 36.8l0.1-0.3l-1.1-1z" />
</svg>