<svg version="1.2" xmlns="http://www.w3.org/2000/svg" viewBox="0 0 70 80" width="70" height="80">
	<title>OH</title>
	<style>
		.s0 { fill: #f9f9f9;stroke: #000000;stroke-linejoin: round;stroke-width: 1 } 
	</style>
	<path id="OH" class="s0" d="m68.7 27.7l-0.2 0.1l-0.5 21.2l-3.1 4.7l-3.6 2.7l-0.7-0.8l-4 5.5l0.3 4.2l-2.4 0.4l-3.3 5.1l1.2 3.3l-1.5 3.2l-4.2 2l-0.2-0.2l-4-2.3l-1.9-3.1l-3.7 3.6l-2.3 0.5l-2.9-1.1l-2.5 1.9l-5.3-2.3l-1.3 0.6l-5-4.3l-2.5-1.3l-4.8 0.6l-0.7 0.8l-0.2-1.6l-5.9-34.4l-2.6-14.7l-0.3-1.5l1-0.3l6.4-1.4l6.1-1.4l6.2-1.6l11.8 1.4l3.9 2.3l7-4l3.7-0.5l4.9-6l7.5-5.7l3.5-2.2l2.7 11.9l0.5 2.1l2.4 10.5c0 0 0.5 2.1 0.5 2.1z" />
</svg>