<svg version="1.2" xmlns="http://www.w3.org/2000/svg" viewBox="0 0 145 71" width="145" height="71">
	<title>OK</title>
	<style>
		.s0 { fill: #f9f9f9;stroke: #000000;stroke-linejoin: round;stroke-width: 1 } 
	</style>
	<path id="OK" class="s0" d="m138.6 11.4l0.6 2.8l3.8 19.6l0.1 4.3l1 26.4l0.1 4.4h-0.1l-3.8-0.7l-4.3-2.8l-4.9-2l-9.1 2.6l-2.4-0.6l-3 1.2l-3.7 3l-9.9-4.7l-3.1 4.3l-4.6-1.7l-4.8-3.1l-2.7 2.3l-2.5 0.1v-1.9l-6.8-3.2l-2.7 1.3l-1.4-1.6l-7.4-0.8l-5.8-5.2l-0.8 1.8l-4.2-0.2l-3.9-3.7l-1.7-5.9l-0.3-33.2l-24.9-0.2l-23.5-0.6h-0.5l0.1-2.6v-2.6l0.1-2.5l0.1-2.5l2 0.1l4.1 0.1l1.9 0.1l6.1 0.2h1.6l4.1 0.1l22.6 0.3l52.7-0.8l37.5-1.8l3.7-0.3l0.2 2.6l0.1 2.5l0.2 2.6c0 0 0.1 2.5 0.1 2.5z" />
</svg>