<svg version="1.2" xmlns="http://www.w3.org/2000/svg" viewBox="0 0 130 109" width="130" height="109">
	<title>OR</title>
	<style>
		.s0 { fill: #f9f9f9;stroke: #000000;stroke-linejoin: round;stroke-width: 1 } 
	</style>
	<path id="OR" class="s0" d="m2.2 80.7l-1.2-5.9l2.1-6.4l0.7-7.2l3.5-6.7l1.3-1l3.8-5.7l5.7-13.4l1-0.1l1.8-8.1l6-14.6l1.4-2.4l2-8.3l1.9 0.9l2.9-0.8l4.9 2.5l0.7-0.5l0.3-0.1l3.5 3.8l-0.6 7.3l0.7 1.8l5.2 2.8l14.8 1.4l0.5 1.7l7 0.1l6.6 0.9l10.8-1.2l5.3 0.9l1.5-0.7l27.3 6.3l1.8 0.3v0.1l0.1 1.9l3.3 3.6l-4.7 11.9l-10.1 13.2l-0.3 2.4l2.6 6.3l-9.2 38.2l-0.4 2l-2.7-0.5l-13.7-3.1l-24.6-5.8l-2.7-0.7l-3.8-0.9l-41.5-11.5l-15.5-4.6zm35.2-79.8l0.1-0.7l0.3 0.9z" />
</svg>