<svg version="1.2" xmlns="http://www.w3.org/2000/svg" viewBox="0 0 92 68" width="92" height="68">
	<title>PA</title>
	<style>
		.s0 { fill: #f9f9f9;stroke: #000000;stroke-linejoin: round;stroke-width: 1 } 
	</style>
	<path id="PA" class="s0" d="m88.2 10.5l-4.1 9l1.8 2.2l-0.1 6.5l1.8 0.3l3.8 9.9l-0.3 0.2l-0.4 0.7l-3.8 4.2l-0.2 0.9h-2.4l-1.7 1.4l-0.8 1.9l-1.6 0.5l-6.9 2.1l-38 10.6l-6.9 1.8l-1.7 0.5l-2 0.5l-13.8 3.4l-4.2-18.4l-0.5-2.1l-2.4-10.5l-0.5-2.1l-2.7-11.9l0.5-0.5l4.8-4.9l2.6-1.8l1.7-1.3l0.6 2.9l5.2 1.3l29.5-8.1l29.7-8.9l5.4 4.2l1.1 2.4l6.3 2.7c0 0 0.2 0.4 0.2 0.4z" />
</svg>