<svg version="1.2" xmlns="http://www.w3.org/2000/svg" viewBox="0 0 15 18" width="15" height="18">
	<title>RI</title>
	<style>
		.s0 { fill: #f9f9f9;stroke: #000000;stroke-linejoin: round;stroke-width: 1 } 
	</style>
	<path id="RI" fill-rule="evenodd" class="s0" d="m2.4 3.1l4.4-1.8l4.3 5.2l-2 0.3l0.9 6.6l-4.6 3.7l-0.2 0.3l-0.1-2.3l-0.6-2l-3-8.5l-0.4-1.1c0 0 1.3-0.4 1.3-0.4zm10 7.4c0 0-1.3 0.1-1.3 0.1l0.1-2.5zm-0.6-3.7h1l0.3 1.2l0.8 1.6l-0.5 1.2l-0.9-1.6l-0.7-1.7zm-1.7 4l0.2-0.8l0.1 2c0 0-0.3-1.2-0.3-1.2z" />
</svg>