<svg version="1.2" xmlns="http://www.w3.org/2000/svg" viewBox="0 0 83 64" width="83" height="64">
	<title>SC</title>
	<style>
		.s0 { fill: #f9f9f9;stroke: #000000;stroke-linejoin: round;stroke-width: 1 } 
	</style>
	<path id="SC" class="s0" d="m3.8 11.5l32.2-10.2l5.4 2.8l11 0.4l8.1-1.6l21.6 13.7l-0.4 0.2l-3.6 4.6l-5.3 9.9l-0.2 4.9l-3.4 2.2l0.5 1.7l-4.7 3.6l0.9 1.7l-7.6 6.4l-4.8 0.3l4 3.3l-2.4 1.8l-4.1-3.1l1.5 4.3l-1 4.4l-5.8-5.4l-7.9-11.4l-4.4-2l-18.7-15.7l-4.6-5.8l-8.8-3.7l-0.5-2l2.7-5.3z" />
</svg>