<svg version="1.2" xmlns="http://www.w3.org/2000/svg" viewBox="0 0 115 72" width="115" height="72">
	<title>SD</title>
	<style>
		.s0 { fill: #f9f9f9;stroke: #000000;stroke-linejoin: round;stroke-width: 1 } 
	</style>
	<path id="SD" class="s0" d="m110.2 1.4l-0.1 0.3l-3.9 6.4l2.5 4.3l4.9 34.1l0.2 4.5l-2.1 0.1l1.7 10.8l-1.4 5.1l2.2 3.2v0.7l-1.9-0.2l-3-3l-10.6-3.1l-3.4-0.1l-5.1 1.4l-6.1-3.9l-19.1 0.2l-27.9-0.2l-32.9-1.1l-2.9-0.1l0.1-2.6l0.8-15.2l0.9-20.4l0.1-2.5h0.3l0.1-1.3l0.3-6.7l0.4-8.9l0.1-2.2l3.8 0.2l42.8 1.2l39.5-0.3l16.4-0.5c0 0 3.3-0.2 3.3-0.2z" />
</svg>