<svg version="1.2" xmlns="http://www.w3.org/2000/svg" viewBox="0 0 138 58" width="138" height="58">
	<title>TN</title>
	<style>
		.s0 { fill: #f9f9f9;stroke: #000000;stroke-linejoin: round;stroke-width: 1 } 
	</style>
	<path id="TN" class="s0" d="m104.6 8.2l1.8-0.3l16.6-3.4l6.6-1.3l5.5-1.6l1.6-0.3l-0.5 1.5l0.1 4.1l-1.1-0.1l-2.5 5.2l-2.8 0.3l-5.3 5.1l-2.3-0.9l-3 4.5l-8 7.2l-3.8 1l-4.1 3.7l-0.2 2.6l-3.6 1.9l0.1 4.3v1l-1.4 0.2l-7.5 1.4l-2.1 0.4l-8.2 1.5l-1.8 0.2l-2.9 0.5l-15.5 2.6l-7.8 0.9l-16.3 2.3l0.1 0.1h-0.2l-4.8 0.7l-8.6 1.2l-19.4 2.4l-2.1 0.2l-0.2-0.2l3.5-3.2l-1-3.9l2.7-4.2l-0.6-4l3-5.6v-0.1v-0.8l0.1-4.5l2-2.4l-0.6-2.7l-0.1-0.1l1.1-0.1v0.1v0.7l0.4 0.1l0.7-0.9v-0.1l2.9-0.4l19.6-2.6l-1-3.9l3.3-0.1l39.5-5.3l27.8-4.6c0 0 0.3-0.3 0.3-0.3z" />
</svg>