<svg version="1.2" xmlns="http://www.w3.org/2000/svg" viewBox="0 0 231 216" width="231" height="216">
	<title>TX</title>
	<style>
		.s0 { fill: #f9f9f9;stroke: #000000;stroke-linejoin: round;stroke-width: 1 } 
	</style>
	<path id="TX" fill-rule="evenodd" class="s0" d="m67.9 1.4l23.5 0.6l24.9 0.2l0.3 33.2l1.7 5.9l3.9 3.7l4.2 0.2l0.8-1.8l5.8 5.2l7.4 0.8l1.4 1.6l2.7-1.3l6.8 3.2v1.9l2.5-0.1l2.7-2.3l4.8 3.1l4.6 1.7l3.1-4.3l9.9 4.7l3.7-3l3-1.2l2.4 0.6l9.1-2.6l4.9 2l4.3 2.8l3.8 0.7h0.1l0.3 0.1l1.5 1.5l5.8-0.1l0.6 8.5l0.2 2.4l0.1 2.3l1.9 18.8l3.2 4.4l0.1 2.7l3.1 5.4l2.5 8l-0.8 4.4l-0.7 11.1l-1.5 3.6h-0.3l-1.4 6.2l-2.1 0.1l-13 6.8l3.2-2.7h-2.9l0.4-5.2l-4.8 2.2l-0.3 2.9l1.4 4.6l-2.7 2.8l-0.7 2.8l-4.4 3.7l-7.4 4.9l-6.6 1.5l-5-0.3l-2.8-1.1l4.4 4.6l-4.5 2.5l-3.5-1.9l1.1 3.8l-2.7 2.2l0.6-2.9l-2.5 3.3l0.4 1.4l-2.7 4.2l-5.8-0.7l3.9 5.2l-2 5.2l-3.6 1.2l-3.1-3.3l2.8 4.5l2 0.2l-0.7 4.8l1.6 2.3l1 7.1l2.8 8.1l3 2.8l-6.7 1.5l-5.7-3.1h-7.7l-5.1-3l-4-0.9l-7.9-9.7l-1.2 0.3l-0.2-3.5l-4.5-2.5l-1.6-11.1l-1.8-0.6l-4.2-4.2l-3.3-5.5l-4.3-3.6l-4.2-10.3l-1.9-2.4l-0.6-3.6l-2.8-3.4l-3-1.9l1.5-2.7l-5.3-1l-7.7-4.8l-8.4-0.6l-2.9-1.5l-7.6 3l-2.4 4.8l-1.5 4.9l-4.6 4.7l-3.4-1.3l-7.5-4.7l-5.1-1.9l-3.6-4l-4.6-3l-2.1-10.7l-5.7-10.3l-7.9-5.9l-6-7.1l-10.5-10.5l-0.1-0.1l-2.4-4.8l12.3 0.9l30.8 1.8l19.2 0.8l3.3-91l0.7 0.1c0 0 0.5 0 0.5 0zm96.3 186.9l0.4-2l3.3-6.2zm7.2-15.6l2.2-1.3l-3.1 4.1zm4.9-3.8l-2.1 0.4l7.3-3.8zm7.5-6.2l0.8-0.2l-2.1 1.6zm-19.4 33.9v-3.3l4.7 17.6z" />
</svg>