<svg version="1.2" xmlns="http://www.w3.org/2000/svg" viewBox="0 0 127 78" width="127" height="78">
	<title>VA</title>
	<style>
		.s0 { fill: #f9f9f9;stroke: #000000;stroke-linejoin: round;stroke-width: 1 } 
	</style>
	<path id="VA" fill-rule="evenodd" class="s0" d="m25.2 52.9l1.1 3l6.1 2.3l2.4-2.2l2.6-0.3l5.3-4.2l6.5-2l1.8-2.8l0.3-5.8l2.4-4.5l2.9-13.2l5.9 2.1l1.9-5.8l3.1-3.3l4.9-9.4l-0.2-5.6l9 3.9l0.6-4.1v-0.1l0.3 0.1l4.5 1.2l3.2 2.3l3.1 1.4l0.3 0.2l0.5 0.4l0.2 0.1l0.1-0.1l0.2 0.2l0.2 5.5l-0.9-0.2l0.8 6.7l2.4-1.5l2.8 2.5l5.7 0.4l6.6 2.5l-0.9 1.5l0.9 4.5l-10-5l7.4 6l3.9-0.2l1.6 4.5l-3.1-0.2l4.4 5.5l-1.6 2.5l-5.4-3.7l-9.8 0.9l5 0.2l7.3 2.4l2.2 1.9l2.2-1.8l4.9-0.9l4 6.1l0.4 0.8l-0.2 0.1l-0.3 0.1l-1.5-2.9l-0.5-0.1l0.7 3.3l0.1 0.1l-0.8 0.2l-0.7-0.7l0.1 0.3l0.3 0.5l-38.8 11l-24.8 6.3l-25 4.7l-0.1-0.2l-1.6 0.3l-5.5 1.6l-6.6 1.3l-16.6 3.4l-1.8 0.3l0.7-0.8l7.3-3.9l5.6-7.3l0.8-2.6l3.7-2.9l4.7-5.9l0.6-1c0 0 0.2 0.1 0.2 0.1zm74.8-30.7h-1.2l3 1.4zm20.9 15.2l-0.4 0.3v-0.5zm3.5-20.8l-1.1 5.1l-2.5 7.9l-1.4 6l-0.9-2.3l2.4-14.5l-0.3-0.1l0.6-0.8l2-0.9l1.2-0.5c0 0 0 0.1 0 0.1zm-2.9 18.3l-0.2 1.3l-0.3 0.5zm0.8-2.5l0.2-0.6l-0.1 0.6c0 0-0.1 0-0.1 0zm0.7-2.6l0.3-0.7l-0.5 1.7zm0-3.1l0.5-0.5l-0.4 2.2zm1.9-8.7l0.1-0.2l-0.1 0.9c0 0 0-0.7 0-0.7zm1 0.1l-0.4 1.1l0.5-3l0.1-0.4l0.3-0.1c0 0-0.5 2.4-0.5 2.4zm-1.8 29.3l0.2 0.5l-0.3 0.1h-0.3c0 0 0.4-0.6 0.4-0.6zm-2-13.7l-0.1-0.7z" />
</svg>