<svg version="1.2" xmlns="http://www.w3.org/2000/svg" viewBox="0 0 108 80" width="108" height="80">
	<title>WA</title>
	<style>
		.s0 { fill: #f9f9f9;stroke: #000000;stroke-linejoin: round;stroke-width: 1 } 
	</style>
	<path id="WA" fill-rule="evenodd" class="s0" d="m10.2 53.9l-1.4-2.8l-2.9-1.7l-2.5 0.1l-2.2-2.7l1.6-5.6l0.9 4.9l1.9-6.3l-2.4-1.1l4.4-3.1l-4.4-0.4l0.8-2.3l1.1-14.4l-1.7-4.5l0.2-2.5l2.2-5.9l7.8 6.1l8.9 3.9l1.7-0.9l1.4 2.3l2.7 0.7l0.9 4.6l0.5-0.7l0.9 0.9l-2.6 5.8l-1.3-0.2l0.6 4.8l-1.9-0.3l-2.5 2.6l1.1-3.8l-1.6 2.1l-0.4-0.2v0.7l-2.3 2.9l2.4-1.1l1.7 1.1c0 0.2 0 0.3 0 0.3l0.2-0.2l0.5 0.3l5.7-4v-3.7l1.3-3.5l2.7-3.9l-2-9.1l0.4-0.4l-0.5-0.1l-0.4-2.2l2.6 1.4l1.4-2.7l-1.5-8.5l6.7 1.7l22.4 6.2l19.8 5l22.7 5.4l1.6 0.3l-11.3 50.6l0.5 4.2l-0.4 4.4l0.2 0.9l-1.8-0.3l-27.3-6.3l-1.5 0.7l-5.3-0.9l-10.8 1.2l-6.6-0.9l-7-0.1l-0.5-1.7l-14.8-1.4l-5.2-2.8l-0.7-1.8l0.6-7.3l-3.5-3.8c0 0-1.8 0-1.8 0zm18.6-31.1l-2.3 0.5l-2.4 2.8l2.2-0.1zm0.5-0.1l-0.1-0.4l-0.4 0.5zm-5.3 14.3l-0.1-0.1c-0.1-0.4-0.1-0.7-0.1-0.7h0.7zm-2-2.9l0.4-0.5h0.2l-0.6 1.9zm5.3-0.8l1.7-2.5l0.1 2zm2-7.1l0.2 0.5l-0.3 1.9zm-0.3-8.2l0.4 0.1l0.1 1c0 0-0.5-1.1-0.5-1.1zm3.1-5.3l0.1 0.4l-2.2 2.2l1.7-2.7zm-1.3-3.2l-0.1 0.3l-0.5 0.4zm-2.2 0.6l0.9-1.6l0.3 1.9zm0.4-1.8l-0.6-1l0.8 0.4zm2.8 0.3l0.3-0.5v1.3zm0.7-0.8h0.1l0.4 0.3c0 0-0.5-0.3-0.5-0.3zm-5.7-2.3l0.2 0.1l0.5 0.3zm2.3 1l-0.7-0.2l2.6-0.7zm-0.7-1.5l0.1-0.1l0.4 0.6c0 0-0.5-0.5-0.5-0.5zm2.7-0.5l-0.5-0.2h0.4zm-28 41.7q0 0 0 0zm0.1-1.6l-0.2 0.1c0 0 0.1 1.5 0.1 1.5z" />
</svg>