<svg version="1.2" xmlns="http://www.w3.org/2000/svg" viewBox="0 0 85 94" width="85" height="94">
	<title>WI</title>
	<style>
		.s0 { fill: #f9f9f9;stroke: #000000;stroke-linejoin: round;stroke-width: 1 } 
	</style>
	<path id="WI" fill-rule="evenodd" class="s0" d="m80.6 39.6l-0.7-2.4l1.5-4.4l2.4-3zm-71.4-30.4c0 0 0.1 0.2 0.1 0.2l9.7-1.5l7.9-4.1l-0.7 7.1l1.7-1l4.9 0.7l0.3-0.3l3.1 1.7l16 4.9l7.3 1.9l7.2 0.5l5.3 4.3v6.6l4.6 4.6l-0.1 0.1l-0.2 2l-3.3 4.4l-1.1 5.1l3.6-2.1l1.6-4.1l2.8-1l1.5 1.6l-1.3 4.5l-0.2 6l0.9 1.1l-2.3 6.5l0.6 5.3l-1.2 6.8l0.7 6.1l2.6 4.8v4.6l0.4 1.4l-13.1 1.9l-7.9 1l-21.2 2.4l0.1-0.5l-5.3-2.8l-2.9-4l-1-5.7l0.8-2.6l-2.8-3.4v-0.5l-1.4-7.5l-5.9-3l-4.7-4.9l-7.3-4.4l-2.4-0.2l-3.6-2.7l1-13.4l-3.4-3.1l1.2-5.5l6.2-5.6l-1.1-11.7zm21.2-5.4c0 0-1.6 0.1-1.6 0.1l1.1-0.7zm-1.8 2.2l1-1l-1.4 2zm-1.2-2.2l0.7-0.3l0.2 0.7zm-2.6-1.1l0.2 0.2l-0.2 0.6c0 0 0-0.8 0-0.8zm6.5-0.6l0.2-1.6l0.3 1.3z" />
</svg>