<svg version="1.2" xmlns="http://www.w3.org/2000/svg" viewBox="0 0 72 74" width="72" height="74">
	<title>WV</title>
	<style>
		.s0 { fill: #f9f9f9;stroke: #000000;stroke-linejoin: round;stroke-width: 1 } 
	</style>
	<path id="WV" class="s0" d="m42.7 15.2l2.2 10.2l4.5-6.3l2.2-0.5l4.3-3l2.9-0.7v-1.9l3.4-2.6l5.8 0.7l2.8 4.8v0.1l-0.6 4.1l-9-3.9l0.2 5.6l-4.9 9.4l-3.1 3.3l-1.9 5.8l-5.9-2.1l-2.9 13.2l-2.4 4.5l-0.3 5.8l-1.8 2.8l-6.5 2l-5.3 4.2l-2.6 0.3l-2.4 2.2l-6.1-2.3l-1.1-3l-0.2-0.1l-0.3-0.1h-2.4l-3.1-1.7l-5.5-6.7l-2-6.8v-0.2l4.2-2l1.5-3.2l-1.2-3.3l3.3-5.1l2.4-0.4l-0.3-4.2l4-5.5l0.7 0.8l3.6-2.7l3.1-4.7l0.5-21.2l0.2-0.1l4.2 18.4l13.8-3.4c0 0 2-0.5 2-0.5z" />
</svg>