<svg version="1.2" xmlns="http://www.w3.org/2000/svg" viewBox="0 0 112 92" width="112" height="92">
	<title>WY</title>
	<style>
		.s0 { fill: #f9f9f9;stroke: #000000;stroke-linejoin: round;stroke-width: 1 } 
	</style>
	<path id="WY" class="s0" d="m109.3 50.8l-0.1 2.5l-0.4 7.6l-0.9 17.7l-0.5 10.2l-0.1 2.6l-1.9-0.1l-28.8-1.9l-19.2-1.5l-24-2.4l-2.3-0.3l-2-0.1l-24.7-3.1l-3.8-0.4l2.4-19l0.2-1.2l0.4-3.2l0.9-6.3l3.3-25.3l1.7-12.5l0.4-3.2l0.1-0.6l1.4-9.5l33.1 4.1l26.5 2.5l14 1.2l25 1.4l1.2 0.1l-0.1 2.5l-0.9 20.4l-0.8 15.2c0 0-0.1 2.6-0.1 2.6z" />
</svg>